<svg id="logoWaRette" xmlns="http://www.w3.org/2000/svg" xmlns:xlink="http://www.w3.org/1999/xlink" width="67.5" height="30" viewBox="0 0 67.5 30">
  <defs>
    <clipPath id="clip-path">
      <circle id="Ellipse_154" data-name="Ellipse 154" cx="3.257" cy="3.257" r="3.257" fill="none"/>
    </clipPath>
  </defs>
  <rect id="Rectangle_3" data-name="Rectangle 3" width="67.5" height="30" fill="rgba(255,255,255,0)"/>
  <g id="Group_32" data-name="Group 32" transform="translate(0.75 0.75)">
    <g id="Group_16" data-name="Group 16" transform="translate(6.737 20.291)">
      <circle id="Ellipse_78" data-name="Ellipse 78" cx="4.249" cy="4.249" r="4.249" transform="translate(0 0)" fill="#080537"/>
    </g>
    <g id="Group_17" data-name="Group 17" transform="translate(7.426 20.98)">
      <circle id="Ellipse_79" data-name="Ellipse 79" cx="3.56" cy="3.56" r="3.56" transform="translate(0 0)" fill="#080537"/>
    </g>
    <g id="Group_20" data-name="Group 20" transform="translate(7.729 21.283)">
      <g id="Group_19" data-name="Group 19" transform="translate(0)">
        <g id="Group_18" data-name="Group 18" clip-path="url(#clip-path)">
          <rect id="Rectangle_2" data-name="Rectangle 2" width="6.515" height="6.515" fill="#fff"/>
          <circle id="Ellipse_80" data-name="Ellipse 80" cx="3.144" cy="3.144" r="3.144" transform="translate(0.114 0.114)" fill="#fff"/>
          <circle id="Ellipse_81" data-name="Ellipse 81" cx="3.103" cy="3.103" r="3.103" transform="translate(0.131 0.188)" fill="#fefefe"/>
          <circle id="Ellipse_82" data-name="Ellipse 82" cx="3.063" cy="3.063" r="3.063" transform="translate(0.149 0.262)" fill="#fdfdfd"/>
          <circle id="Ellipse_83" data-name="Ellipse 83" cx="3.022" cy="3.022" r="3.022" transform="translate(0.166 0.337)" fill="#fcfcfc"/>
          <circle id="Ellipse_84" data-name="Ellipse 84" cx="2.982" cy="2.982" r="2.982" transform="translate(0.183 0.411)" fill="#fbfbfb"/>
          <circle id="Ellipse_85" data-name="Ellipse 85" cx="2.941" cy="2.941" r="2.941" transform="translate(0.201 0.486)" fill="#fafafa"/>
          <circle id="Ellipse_86" data-name="Ellipse 86" cx="2.901" cy="2.901" r="2.901" transform="translate(0.218 0.56)" fill="#f9f9f9"/>
          <circle id="Ellipse_87" data-name="Ellipse 87" cx="2.86" cy="2.86" r="2.86" transform="translate(0.236 0.634)" fill="#f8f8f8"/>
          <circle id="Ellipse_88" data-name="Ellipse 88" cx="2.82" cy="2.82" r="2.82" transform="translate(0.253 0.709)" fill="#f6f7f7"/>
          <circle id="Ellipse_89" data-name="Ellipse 89" cx="2.779" cy="2.779" r="2.779" transform="translate(0.27 0.783)" fill="#f5f6f6"/>
          <circle id="Ellipse_90" data-name="Ellipse 90" cx="2.739" cy="2.739" r="2.739" transform="translate(0.288 0.858)" fill="#f4f5f5"/>
          <circle id="Ellipse_91" data-name="Ellipse 91" cx="2.698" cy="2.698" r="2.698" transform="translate(0.305 0.932)" fill="#f3f4f4"/>
          <circle id="Ellipse_92" data-name="Ellipse 92" cx="2.658" cy="2.658" r="2.658" transform="translate(0.322 1.006)" fill="#f2f3f3"/>
          <circle id="Ellipse_93" data-name="Ellipse 93" cx="2.618" cy="2.618" r="2.618" transform="translate(0.34 1.081)" fill="#f1f1f2"/>
          <circle id="Ellipse_94" data-name="Ellipse 94" cx="2.577" cy="2.577" r="2.577" transform="translate(0.357 1.155)" fill="#f0f0f1"/>
          <circle id="Ellipse_95" data-name="Ellipse 95" cx="2.537" cy="2.537" r="2.537" transform="translate(0.375 1.229)" fill="#efeff0"/>
          <circle id="Ellipse_96" data-name="Ellipse 96" cx="2.496" cy="2.496" r="2.496" transform="translate(0.392 1.304)" fill="#eeeeef"/>
          <circle id="Ellipse_97" data-name="Ellipse 97" cx="2.456" cy="2.456" r="2.456" transform="translate(0.409 1.378)" fill="#ededee"/>
          <circle id="Ellipse_98" data-name="Ellipse 98" cx="2.415" cy="2.415" r="2.415" transform="translate(0.427 1.453)" fill="#ececed"/>
          <circle id="Ellipse_99" data-name="Ellipse 99" cx="2.375" cy="2.375" r="2.375" transform="translate(0.444 1.527)" fill="#ebebec"/>
          <circle id="Ellipse_100" data-name="Ellipse 100" cx="2.334" cy="2.334" r="2.334" transform="translate(0.462 1.601)" fill="#eaeaeb"/>
          <circle id="Ellipse_101" data-name="Ellipse 101" cx="2.294" cy="2.294" r="2.294" transform="translate(0.479 1.676)" fill="#e9e9ea"/>
          <circle id="Ellipse_102" data-name="Ellipse 102" cx="2.253" cy="2.253" r="2.253" transform="translate(0.496 1.75)" fill="#e8e8e9"/>
          <circle id="Ellipse_103" data-name="Ellipse 103" cx="2.213" cy="2.213" r="2.213" transform="translate(0.514 1.825)" fill="#e7e7e8"/>
          <circle id="Ellipse_104" data-name="Ellipse 104" cx="2.172" cy="2.172" r="2.172" transform="translate(0.531 1.899)" fill="#e6e6e7"/>
          <circle id="Ellipse_105" data-name="Ellipse 105" cx="2.132" cy="2.132" r="2.132" transform="translate(0.549 1.973)" fill="#e4e5e6"/>
          <circle id="Ellipse_106" data-name="Ellipse 106" cx="2.092" cy="2.092" r="2.092" transform="translate(0.566 2.048)" fill="#e3e4e5"/>
          <circle id="Ellipse_107" data-name="Ellipse 107" cx="2.051" cy="2.051" r="2.051" transform="translate(0.583 2.122)" fill="#e2e3e4"/>
          <circle id="Ellipse_108" data-name="Ellipse 108" cx="2.011" cy="2.011" r="2.011" transform="translate(0.601 2.196)" fill="#e1e2e3"/>
          <circle id="Ellipse_109" data-name="Ellipse 109" cx="1.97" cy="1.97" r="1.97" transform="translate(0.618 2.271)" fill="#e0e1e2"/>
          <circle id="Ellipse_110" data-name="Ellipse 110" cx="1.93" cy="1.93" r="1.93" transform="translate(0.636 2.345)" fill="#dfe0e1"/>
          <circle id="Ellipse_111" data-name="Ellipse 111" cx="1.889" cy="1.889" r="1.889" transform="translate(0.653 2.42)" fill="#dedfe0"/>
          <circle id="Ellipse_112" data-name="Ellipse 112" cx="1.849" cy="1.849" r="1.849" transform="translate(0.67 2.494)" fill="#dddedf"/>
          <circle id="Ellipse_113" data-name="Ellipse 113" cx="1.808" cy="1.808" r="1.808" transform="translate(0.688 2.568)" fill="#dcddde"/>
          <circle id="Ellipse_114" data-name="Ellipse 114" cx="1.768" cy="1.768" r="1.768" transform="translate(0.705 2.643)" fill="#dbdcdd"/>
          <circle id="Ellipse_115" data-name="Ellipse 115" cx="1.727" cy="1.727" r="1.727" transform="translate(0.723 2.717)" fill="#dadbdc"/>
          <circle id="Ellipse_116" data-name="Ellipse 116" cx="1.687" cy="1.687" r="1.687" transform="translate(0.74 2.792)" fill="#d9dadb"/>
          <circle id="Ellipse_117" data-name="Ellipse 117" cx="1.646" cy="1.646" r="1.646" transform="translate(0.757 2.866)" fill="#d8d9da"/>
          <circle id="Ellipse_118" data-name="Ellipse 118" cx="1.606" cy="1.606" r="1.606" transform="translate(0.775 2.94)" fill="#d7d8d9"/>
          <circle id="Ellipse_119" data-name="Ellipse 119" cx="1.565" cy="1.565" r="1.565" transform="translate(0.792 3.015)" fill="#d6d7d8"/>
          <circle id="Ellipse_120" data-name="Ellipse 120" cx="1.525" cy="1.525" r="1.525" transform="translate(0.81 3.089)" fill="#d5d6d7"/>
          <circle id="Ellipse_121" data-name="Ellipse 121" cx="1.485" cy="1.485" r="1.485" transform="translate(0.827 3.163)" fill="#d4d5d6"/>
          <circle id="Ellipse_122" data-name="Ellipse 122" cx="1.444" cy="1.444" r="1.444" transform="translate(0.844 3.238)" fill="#d3d4d5"/>
          <circle id="Ellipse_123" data-name="Ellipse 123" cx="1.404" cy="1.404" r="1.404" transform="translate(0.862 3.312)" fill="#d2d3d4"/>
          <circle id="Ellipse_124" data-name="Ellipse 124" cx="1.363" cy="1.363" r="1.363" transform="translate(0.879 3.387)" fill="#d1d2d3"/>
          <circle id="Ellipse_125" data-name="Ellipse 125" cx="1.323" cy="1.323" r="1.323" transform="translate(0.897 3.461)" fill="#d0d1d2"/>
          <circle id="Ellipse_126" data-name="Ellipse 126" cx="1.282" cy="1.282" r="1.282" transform="translate(0.914 3.535)" fill="#cfd0d1"/>
          <circle id="Ellipse_127" data-name="Ellipse 127" cx="1.242" cy="1.242" r="1.242" transform="translate(0.931 3.61)" fill="#cecfd0"/>
          <circle id="Ellipse_128" data-name="Ellipse 128" cx="1.201" cy="1.201" r="1.201" transform="translate(0.949 3.684)" fill="#cdcecf"/>
          <circle id="Ellipse_129" data-name="Ellipse 129" cx="1.161" cy="1.161" r="1.161" transform="translate(0.966 3.758)" fill="#cccdcf"/>
          <circle id="Ellipse_130" data-name="Ellipse 130" cx="1.12" cy="1.12" r="1.12" transform="translate(0.984 3.833)" fill="#cbccce"/>
          <circle id="Ellipse_131" data-name="Ellipse 131" cx="1.08" cy="1.08" r="1.08" transform="translate(1.001 3.907)" fill="#cacbcd"/>
          <circle id="Ellipse_132" data-name="Ellipse 132" cx="1.039" cy="1.039" r="1.039" transform="translate(1.018 3.982)" fill="#c9cacc"/>
          <circle id="Ellipse_133" data-name="Ellipse 133" cx="0.999" cy="0.999" r="0.999" transform="translate(1.036 4.056)" fill="#c8c9cb"/>
          <circle id="Ellipse_134" data-name="Ellipse 134" cx="0.958" cy="0.958" r="0.958" transform="translate(1.053 4.13)" fill="#c7c8ca"/>
          <circle id="Ellipse_135" data-name="Ellipse 135" cx="0.918" cy="0.918" r="0.918" transform="translate(1.071 4.205)" fill="#c6c7c9"/>
          <circle id="Ellipse_136" data-name="Ellipse 136" cx="0.878" cy="0.878" r="0.878" transform="translate(1.088 4.279)" fill="#c5c6c8"/>
          <circle id="Ellipse_137" data-name="Ellipse 137" cx="0.837" cy="0.837" r="0.837" transform="translate(1.105 4.354)" fill="#c4c5c7"/>
          <circle id="Ellipse_138" data-name="Ellipse 138" cx="0.797" cy="0.797" r="0.797" transform="translate(1.123 4.428)" fill="#c3c4c6"/>
          <circle id="Ellipse_139" data-name="Ellipse 139" cx="0.756" cy="0.756" r="0.756" transform="translate(1.14 4.502)" fill="#c2c4c5"/>
          <circle id="Ellipse_140" data-name="Ellipse 140" cx="0.716" cy="0.716" r="0.716" transform="translate(1.158 4.577)" fill="#c1c3c4"/>
          <circle id="Ellipse_141" data-name="Ellipse 141" cx="0.675" cy="0.675" r="0.675" transform="translate(1.175 4.651)" fill="#c0c2c3"/>
          <circle id="Ellipse_142" data-name="Ellipse 142" cx="0.635" cy="0.635" r="0.635" transform="translate(1.192 4.725)" fill="#bfc1c2"/>
          <circle id="Ellipse_143" data-name="Ellipse 143" cx="0.594" cy="0.594" r="0.594" transform="translate(1.21 4.8)" fill="#bec0c2"/>
          <circle id="Ellipse_144" data-name="Ellipse 144" cx="0.554" cy="0.554" r="0.554" transform="translate(1.227 4.874)" fill="#bdbfc1"/>
          <circle id="Ellipse_145" data-name="Ellipse 145" cx="0.513" cy="0.513" r="0.513" transform="translate(1.245 4.949)" fill="#bcbec0"/>
          <circle id="Ellipse_146" data-name="Ellipse 146" cx="0.473" cy="0.473" r="0.473" transform="translate(1.262 5.023)" fill="#bbbdbf"/>
          <circle id="Ellipse_147" data-name="Ellipse 147" cx="0.432" cy="0.432" r="0.432" transform="translate(1.279 5.097)" fill="#babcbe"/>
          <circle id="Ellipse_148" data-name="Ellipse 148" cx="0.392" cy="0.392" r="0.392" transform="translate(1.297 5.172)" fill="#b9bbbd"/>
          <circle id="Ellipse_149" data-name="Ellipse 149" cx="0.352" cy="0.352" r="0.352" transform="translate(1.314 5.246)" fill="#b8babc"/>
          <circle id="Ellipse_150" data-name="Ellipse 150" cx="0.311" cy="0.311" r="0.311" transform="translate(1.332 5.321)" fill="#b8b9bb"/>
          <circle id="Ellipse_151" data-name="Ellipse 151" cx="0.271" cy="0.271" r="0.271" transform="translate(1.349 5.395)" fill="#b7b9bb"/>
          <circle id="Ellipse_152" data-name="Ellipse 152" cx="0.23" cy="0.23" r="0.23" transform="translate(1.366 5.469)" fill="#b6b8ba"/>
          <circle id="Ellipse_153" data-name="Ellipse 153" cx="0.19" cy="0.19" r="0.19" transform="translate(1.384 5.544)" fill="#b5b7b9"/>
        </g>
      </g>
    </g>
    <g id="Group_31" data-name="Group 31">
      <g id="Group_21" data-name="Group 21">
        <path id="Path_9" data-name="Path 9" d="M606.852,197.554l-.322-1.417a1.547,1.547,0,0,0-1.516-1.21,1.57,1.57,0,0,0-.345.039,3.222,3.222,0,0,0,.633-1.995l-.3-1.335a1.547,1.547,0,0,0-1.516-1.212c-.116,0,.128-.121.128-.121a1.555,1.555,0,0,0,1.172-1.861l-.321-1.416a1.547,1.547,0,0,0-1.516-1.212,1.566,1.566,0,0,0-.345.039l-30.5,6.922a1.53,1.53,0,0,0,.014-1.678l-6.13-9.708a1.547,1.547,0,0,0-1.315-.725,1.567,1.567,0,0,0-.333.036l-9.4,2.264a1.559,1.559,0,0,0-1.221,1.548l.057,3-1.326-2.769a1.554,1.554,0,0,0-1.736-.847l-2.41.529a1.551,1.551,0,0,0-1.221,1.482L547,189.087l-1.233-2.827a1.554,1.554,0,0,0-1.759-.9l-2.119.465a1.555,1.555,0,0,0-1.057,2.215L545.824,198a1.547,1.547,0,0,0,1.39.858,1.566,1.566,0,0,0,.334-.036l2.725-.6a1.553,1.553,0,0,0,1.221-1.473l.087-2.9,1.267,2.6a1.556,1.556,0,0,0,1.731.837l2.554-.56a1.542,1.542,0,0,0-.147,1.078l2.389,10.529a1.547,1.547,0,0,0,1.516,1.211,1.568,1.568,0,0,0,.345-.039l1.965-.446a1.555,1.555,0,0,0,1.172-1.861l-.164-.724,1.132,1.273a1.555,1.555,0,0,0,1.506.483l2.189-.5a1.559,1.559,0,0,0,1.142-1.059c.01-.032.015-.064.023-.1a1.549,1.549,0,0,0,1.55.539l33.93-7.7a1.555,1.555,0,0,0,1.172-1.861Z" transform="translate(-540.669 -180.664)" fill="#080537"/>
      </g>
      <g id="Group_22" data-name="Group 22" transform="translate(1.149 2.944)">
        <path id="Path_10" data-name="Path 10" d="M561.664,193.905l-.434,11.149a.407.407,0,0,1-.319.381l-2.724.6a.407.407,0,0,1-.453-.219l-2.585-5.3a.407.407,0,0,0-.772.166l-.177,5.91a.407.407,0,0,1-.319.385l-2.725.6a.407.407,0,0,1-.451-.215l-4.989-9.959a.406.406,0,0,1,.276-.579l2.119-.465a.407.407,0,0,1,.46.235l2.575,5.9a.406.406,0,0,0,.779-.153l.156-6.54a.407.407,0,0,1,.319-.387l2.411-.529a.407.407,0,0,1,.454.222l2.8,5.85a.407.407,0,0,0,.773-.184l-.122-6.411a.406.406,0,0,1,.319-.4l2.133-.468A.406.406,0,0,1,561.664,193.905Z" transform="translate(-545.673 -193.483)" fill="#fff"/>
      </g>
      <g id="Group_23" data-name="Group 23" transform="translate(19.449 1.148)">
        <path id="Path_11" data-name="Path 11" d="M632.348,194.9l-3.663.8a.407.407,0,0,0-.317.352l-.174,1.573a.407.407,0,0,1-.317.352l-2.041.448a.407.407,0,0,1-.49-.45l1.5-11.383a.407.407,0,0,1,.316-.344l2.641-.58a.407.407,0,0,1,.431.18l6.131,9.708a.407.407,0,0,1-.257.614l-2.073.455a.407.407,0,0,1-.435-.187l-.817-1.355A.407.407,0,0,0,632.348,194.9Zm-1.187-2.524-1.4-2.323a.407.407,0,0,0-.753.167l-.289,2.694a.406.406,0,0,0,.491.44l1.689-.371A.407.407,0,0,0,631.161,192.377Z" transform="translate(-625.342 -185.664)" fill="#fff"/>
      </g>
      <g id="Group_24" data-name="Group 24" transform="translate(17.425 15.268)">
        <path id="Path_12" data-name="Path 12" d="M624.633,258.184l-3.006-3.38a.406.406,0,0,0-.394-.126l-.03.007a.406.406,0,0,0-.307.486l.79,3.481a.406.406,0,0,1-.306.487l-1.965.446a.407.407,0,0,1-.487-.306l-2.389-10.529a.406.406,0,0,1,.307-.486l4.232-.961a5.228,5.228,0,0,1,2.388-.05,3.305,3.305,0,0,1,1.7.962,3.668,3.668,0,0,1,.88,1.708,3.456,3.456,0,0,1-.179,2.161,3.333,3.333,0,0,1-1.189,1.429.408.408,0,0,0-.07.614l2.813,3.015a.406.406,0,0,1-.207.674l-2.189.5A.407.407,0,0,1,624.633,258.184Zm-4.359-5.758a.407.407,0,0,0,.487.307l1.313-.3a1.6,1.6,0,0,0,1.053-.629,1.436,1.436,0,0,0,.141-1.134,1.392,1.392,0,0,0-.609-.93,1.605,1.605,0,0,0-1.221-.113l-1.313.3a.406.406,0,0,0-.306.486Z" transform="translate(-616.529 -247.136)" fill="#fff"/>
      </g>
      <g id="Group_25" data-name="Group 25" transform="translate(27.94 12.604)">
        <path id="Path_13" data-name="Path 13" d="M665.578,239.011l.34,1.5a.407.407,0,0,0,.487.306l2.9-.658a.407.407,0,0,1,.487.306l.3,1.336a.407.407,0,0,1-.307.486l-2.9.658a.407.407,0,0,0-.306.486l.384,1.691a.407.407,0,0,0,.487.307l3.384-.768a.407.407,0,0,1,.487.307l.321,1.417a.407.407,0,0,1-.306.486l-6.142,1.394a.406.406,0,0,1-.486-.307l-2.389-10.529a.406.406,0,0,1,.306-.487l6.142-1.394a.407.407,0,0,1,.487.306l.321,1.417a.406.406,0,0,1-.306.486l-3.384.768A.407.407,0,0,0,665.578,239.011Z" transform="translate(-662.309 -235.537)" fill="#fff"/>
      </g>
      <g id="Group_26" data-name="Group 26" transform="translate(36.282 10.35)">
        <path id="Path_14" data-name="Path 14" d="M707.393,226.038l.321,1.417a.406.406,0,0,1-.306.487l-2.207.5a.407.407,0,0,0-.307.486l1.888,8.32a.406.406,0,0,1-.306.486l-1.965.446a.407.407,0,0,1-.487-.307l-1.888-8.319a.407.407,0,0,0-.486-.307l-2.207.5a.407.407,0,0,1-.487-.307l-.321-1.417a.406.406,0,0,1,.306-.486l7.965-1.807A.407.407,0,0,1,707.393,226.038Z" transform="translate(-698.625 -225.722)" fill="#fff"/>
      </g>
      <g id="Group_27" data-name="Group 27" transform="translate(45.814 8.187)">
        <path id="Path_15" data-name="Path 15" d="M748.89,216.622l.321,1.416a.407.407,0,0,1-.306.487l-2.207.5a.406.406,0,0,0-.306.486l1.888,8.319a.407.407,0,0,1-.306.487l-1.965.446a.406.406,0,0,1-.486-.307l-1.888-8.319a.407.407,0,0,0-.486-.306l-2.207.5a.407.407,0,0,1-.487-.306l-.322-1.417a.407.407,0,0,1,.307-.486l7.965-1.807A.407.407,0,0,1,748.89,216.622Z" transform="translate(-740.122 -216.305)" fill="#fff"/>
      </g>
      <g id="Group_28" data-name="Group 28" transform="translate(55.728 6.298)">
        <path id="Path_16" data-name="Path 16" d="M786.556,211.558l.34,1.5a.406.406,0,0,0,.486.307l2.9-.658a.407.407,0,0,1,.487.306l.3,1.336a.407.407,0,0,1-.307.486l-2.9.658a.407.407,0,0,0-.307.487l.384,1.691a.406.406,0,0,0,.486.306l3.384-.768a.406.406,0,0,1,.486.307l.322,1.417a.406.406,0,0,1-.307.486l-6.142,1.394a.406.406,0,0,1-.486-.306l-2.39-10.529a.407.407,0,0,1,.307-.486l6.142-1.394a.407.407,0,0,1,.487.306l.321,1.417a.407.407,0,0,1-.306.487l-3.384.768A.407.407,0,0,0,786.556,211.558Z" transform="translate(-783.286 -208.084)" fill="#fff"/>
      </g>
      <g id="Group_29" data-name="Group 29" transform="translate(35.95 10.411)">
        <path id="Path_17" data-name="Path 17" d="M705.946,226.305l.321,1.417a.406.406,0,0,1-.306.486l-2.207.5a.407.407,0,0,0-.307.486l1.888,8.32a.407.407,0,0,1-.307.486l-1.965.446a.407.407,0,0,1-.487-.306l-1.888-8.319a.407.407,0,0,0-.487-.307l-2.207.5a.407.407,0,0,1-.487-.307l-.321-1.417a.406.406,0,0,1,.306-.486L705.46,226A.406.406,0,0,1,705.946,226.305Z" transform="translate(-697.179 -225.989)" fill="#f63c1f"/>
      </g>
      <g id="Group_30" data-name="Group 30" transform="translate(45.481 8.248)">
        <path id="Path_18" data-name="Path 18" d="M747.443,216.888l.321,1.417a.407.407,0,0,1-.307.486l-2.207.5a.406.406,0,0,0-.306.486l1.888,8.32a.407.407,0,0,1-.306.486l-1.965.446a.407.407,0,0,1-.487-.307l-1.888-8.319a.407.407,0,0,0-.487-.306l-2.207.5a.406.406,0,0,1-.486-.306l-.322-1.417a.407.407,0,0,1,.307-.486l7.965-1.807A.407.407,0,0,1,747.443,216.888Z" transform="translate(-738.675 -216.572)" fill="#26c5a0"/>
      </g>
    </g>
    <path id="Path_19" data-name="Path 19" d="M592.891,269.319s-1.5-1.711-.58-3.319c0,0-1.378,1.838-2.889,1.036,0,0,1.741,1.031.822,2.409C590.243,269.445,591.162,268.067,592.891,269.319Z" transform="translate(-578.223 -246.399)" fill="#ffe000" opacity="0.9"/>
    <path id="Path_20" data-name="Path 20" d="M590.228,261.587a1.474,1.474,0,0,1,1.547.31s-.568-.913.038-1.437c0,0-.745.585-1.191-.05C590.622,260.41,591.068,261.045,590.228,261.587Z" transform="translate(-578.845 -242.093)" fill="#ffe000" opacity="0.9"/>
  </g>
</svg>
