<svg xmlns="http://www.w3.org/2000/svg" xmlns:xlink="http://www.w3.org/1999/xlink" width="11.51" height="10.528" viewBox="0 0 11.51 10.528">
  <defs>
    <filter id="Polygon_2" x="0" y="0" width="11.51" height="10.528" filterUnits="userSpaceOnUse">
      <feOffset dx="1" dy="1" input="SourceAlpha"/>
      <feGaussianBlur result="blur"/>
      <feFlood flood-opacity="0.161"/>
      <feComposite operator="in" in2="blur"/>
      <feComposite in="SourceGraphic"/>
    </filter>
  </defs>
  <g id="Group_64" data-name="Group 64" transform="translate(0.255 1)">
    <g transform="matrix(1, 0, 0, 1, -0.25, -1)" filter="url(#Polygon_2)">
      <g id="Polygon_2-2" data-name="Polygon 2" transform="translate(10.25 9.5) rotate(180)" fill="#de9f14">
        <path d="M 8.251579284667969 9.000000953674316 L 1.748419523239136 9.000000953674316 C 1.203599572181702 9.000000953674316 0.7168395519256592 8.717650413513184 0.4463495314121246 8.244720458984375 C 0.1758495271205902 7.771790981292725 0.1792795211076736 7.209080696105957 0.4555095136165619 6.739470958709717 L 3.707099437713623 1.211780786514282 C 3.979469537734985 0.7487507462501526 4.462799549102783 0.4723107516765594 4.999999523162842 0.4723107516765594 C 5.5371994972229 0.4723107516765594 6.020529747009277 0.7487507462501526 6.292899608612061 1.211780786514282 L 9.544489860534668 6.739470958709717 C 9.820719718933105 7.209080696105957 9.824149131774902 7.771790981292725 9.55364990234375 8.244720458984375 C 9.283159255981445 8.717650413513184 8.796399116516113 9.000000953674316 8.251579284667969 9.000000953674316 Z" stroke="none"/>
        <path d="M 4.999999523162842 0.9723081588745117 C 4.66569709777832 0.9723081588745117 4.331394672393799 1.136635780334473 4.138069629669189 1.465290546417236 L 0.886479377746582 6.99298095703125 C 0.494349479675293 7.659610748291016 0.9749994277954102 8.500000953674316 1.748419761657715 8.500000953674316 L 8.251579284667969 8.500000953674316 C 9.024999618530273 8.500000953674316 9.505649566650391 7.659610748291016 9.113519668579102 6.99298095703125 L 5.861929416656494 1.465290546417236 C 5.668604373931885 1.136635780334473 5.334301948547363 0.9723081588745117 4.999999523162842 0.9723081588745117 M 4.999999523162842 -0.02768898010253906 C 5.716269493103027 -0.02768898010253906 6.360699653625488 0.3408908843994141 6.723859786987305 0.9582710266113281 L 9.975449562072754 6.485960960388184 C 10.34376907348633 7.112100601196289 10.34833908081055 7.862380981445313 9.987679481506348 8.492960929870605 C 9.627019882202148 9.123540878295898 8.978009223937988 9.500000953674316 8.251579284667969 9.500000953674316 L 1.748419761657715 9.500000953674316 C 1.021989822387695 9.500000953674316 0.3729791641235352 9.123540878295898 0.01231956481933594 8.492960929870605 C -0.3483400344848633 7.862380981445313 -0.3437700271606445 7.112100601196289 0.02453994750976563 6.485960960388184 L 3.276139736175537 0.9582710266113281 C 3.639279365539551 0.3409004211425781 4.283719539642334 -0.02768898010253906 4.999999523162842 -0.02768898010253906 Z" stroke="none" fill="#de9f14"/>
      </g>
    </g>
    <g id="Polygon_1" data-name="Polygon 1" transform="translate(10 9.5) rotate(180)" fill="#fff">
      <path d="M 8.251579284667969 8.000000953674316 L 1.748419523239136 8.000000953674316 C 1.486649513244629 8.000000953674316 1.357689499855042 7.823940753936768 1.31438946723938 7.748240947723389 C 1.27109956741333 7.672540664672852 1.18472957611084 7.472120761871338 1.317449569702148 7.246490955352783 L 4.569039344787598 1.718800783157349 C 4.699899673461914 1.496330738067627 4.914019584655762 1.472310781478882 4.999999523162842 1.472310781478882 C 5.085979461669922 1.472310781478882 5.30009937286377 1.496330738067627 5.430959701538086 1.718800783157349 L 8.682549476623535 7.246490955352783 C 8.815269470214844 7.472120761871338 8.728899955749512 7.672540664672852 8.685609817504883 7.748240947723389 C 8.642309188842773 7.823940753936768 8.513349533081055 8.000000953674316 8.251579284667969 8.000000953674316 Z" stroke="none"/>
      <path d="M 4.999999523162842 1.972310543060303 L 1.748419761657715 7.500000953674316 L 8.251579284667969 7.500000953674316 C 8.251580238342285 7.500000953674316 8.251581192016602 7.500000953674316 8.251582145690918 7.500000953674316 C 8.251583099365234 7.499999046325684 8.251585006713867 7.499996662139893 8.251589775085449 7.500000953674316 L 4.999999523162842 1.972310543060303 M 4.999999523162842 0.9723081588745117 C 5.334301948547363 0.9723081588745117 5.668604373931885 1.136635780334473 5.861929416656494 1.465290546417236 L 9.113519668579102 6.99298095703125 C 9.505649566650391 7.659610748291016 9.024999618530273 8.500000953674316 8.251579284667969 8.500000953674316 L 1.748419761657715 8.500000953674316 C 0.9749994277954102 8.500000953674316 0.494349479675293 7.659610748291016 0.886479377746582 6.99298095703125 L 4.138069629669189 1.465290546417236 C 4.331394672393799 1.136635780334473 4.66569709777832 0.9723081588745117 4.999999523162842 0.9723081588745117 Z" stroke="none" fill="#f7b628"/>
    </g>
  </g>
</svg>
